<svg xmlns="http://www.w3.org/2000/svg" width="256" height="256" viewBox="0 0 100 100"><rect width="100" height="100" rx="20" fill="#d8dee9"></rect><path d="M69.03 35.49L69.03 35.49L61.88 37.52Q61.20 35.73 59.90 34.03Q58.60 32.32 56.38 31.21Q54.15 30.10 50.67 30.10L50.67 30.10Q45.92 30.10 42.76 32.27Q39.61 34.45 39.61 37.79L39.61 37.79Q39.61 40.76 41.77 42.48Q43.93 44.20 48.52 45.34L48.52 45.34L56.21 47.23Q63.16 48.92 66.56 52.38Q69.97 55.84 69.97 61.27L69.97 61.27Q69.97 65.72 67.42 69.23Q64.88 72.74 60.32 74.76Q55.77 76.79 49.73 76.79L49.73 76.79Q41.80 76.79 36.61 73.35Q31.41 69.90 30.03 63.29L30.03 63.29L37.59 61.40Q38.66 65.59 41.68 67.68Q44.70 69.77 49.60 69.77L49.60 69.77Q55.16 69.77 58.45 67.39Q61.74 65.01 61.74 61.67L61.74 61.67Q61.74 58.97 59.85 57.14Q57.96 55.30 54.05 54.39L54.05 54.39L45.41 52.36Q38.29 50.67 34.97 47.12Q31.65 43.56 31.65 38.19L31.65 38.19Q31.65 33.81 34.13 30.43Q36.61 27.06 40.91 25.14Q45.21 23.21 50.67 23.21L50.67 23.21Q58.37 23.21 62.77 26.59Q67.17 29.96 69.03 35.49Z" fill="#2e3440"></path></svg>